<svg width="220" height="220" xmlns="http://www.w3.org/2000/svg">
 <!--Unicode Character 'SPEAKER WITH THREE SOUND WAVES' (U+1F50A)-->
 <g>
  <g stroke="null" id="svg_1">
    <path fill="#c9c9c9" id="svg_3" d="m197.765593,112.274648q0,56.608023 -34.866159,105.006555l-8.157767,-6.98408q32.742879,-44.355126 32.742879,-98.022475q0,-52.56453 -32.631149,-97.899969l8.157767,-6.98408q34.754428,48.398619 34.754428,104.884048zm-24.585112,0q0,46.928282 -28.831592,88.220228l-8.157847,-6.739067q26.708391,-38.228765 26.708391,-81.481161q0,-43.129889 -26.708391,-81.358654l8.157847,-6.739067q28.831592,40.434315 28.831592,88.097721zm-24.585112,0q0,37.126034 -22.908834,71.433901l-8.269577,-6.616561q20.897365,-30.63198 20.897365,-64.81734q0,-33.572654 -20.897365,-64.81734l8.269577,-6.616561q22.908834,34.307866 22.908834,71.433901zm-54.645979,89.200452l-52.634509,-53.299655l-33.189881,0l0,-71.801507l33.301612,0l52.522779,-53.177236l0,178.278398z"/>
   </g>
 </g>
</svg>